# xmcd CD database file
#
# Track frame offsets:
#	150
#	12131
#	21655
#	37461
#	55095
#	65661
#	75497
#	89570
#	101287
#	112995
#	125468
#	143147
#	156796
#	170868
#
# Disc length: 2467 seconds
#
# Revision: 2
# Processed by: cddbd v1.5.2PL0 Copyright (c) Steve Scherf et al.
# Submitted via: CDex 1.70beta2
#
DISCID=bf09a10e
DTITLE=Nada Urbankova - Zlate hity
DYEAR=2003
DGENRE=Pop
TTITLE0=Svatebni pruvod
TTITLE1=Drahy muj
TTITLE2=Vilem pece housky
TTITLE3=Zavidim
TTITLE4=Blondak s cervenou bugatkou
TTITLE5=Skalou chcem se stat
TTITLE6=Vim, ze prijdu do nebe
TTITLE7=O, ty to nepochopis
TTITLE8=Slecna Sen
TTITLE9=Zarlim
TTITLE10=Tata prijde kazdou vterinu
TTITLE11=Tobe nalezel cas
TTITLE12=Houpani
TTITLE13=Co jen koukas, taky zpivej
EXTD=YEAR: 2003
EXTT0=
EXTT1=
EXTT2=
EXTT3=
EXTT4=
EXTT5=
EXTT6=
EXTT7=
EXTT8=
EXTT9=
EXTT10=
EXTT11=
EXTT12=
EXTT13=
PLAYORDER=
